HIERARCHY
ROOT Hip
{
  OFFSET 0.0 0.0 0.0
  CHANNELS 6 Xposition Yposition Zposition Xrotation Yrotation Zrotation
  JOINT LowerSpine
  {
    OFFSET 0.0 0.061367 -0.03653
    CHANNELS 3 Xrotation Yrotation Zrotation
    JOINT MiddleSpine
    {
      OFFSET 0.0 0.056002 0.002633
      CHANNELS 3 Xrotation Yrotation Zrotation
      JOINT Chest
      {
        OFFSET 0.0 0.069296 -0.013882
        CHANNELS 3 Xrotation Yrotation Zrotation
        JOINT Neck
        {
          OFFSET 0.0 0.156156 -0.002923
          CHANNELS 3 Xrotation Yrotation Zrotation
          JOINT Head
          {
            OFFSET 0.0 0.088183 0.023986
            CHANNELS 3 Xrotation Yrotation Zrotation
            End Site
            {
              OFFSET 1e-06 0.123215 0.003678
            }
          }
        }
        JOINT LClavicle
        {
          OFFSET 0.014189 0.150698 0.046467
          CHANNELS 3 Xrotation Yrotation Zrotation
          JOINT LShoulder
          {
            OFFSET 0.082893 0.021616 -0.034976
            CHANNELS 3 Xrotation Yrotation Zrotation
            JOINT LForearm
            {
              OFFSET 0.195645 -0.000695 -0.001695
              CHANNELS 3 Xrotation Yrotation Zrotation
              JOINT LHand
              {
                OFFSET 0.163209 0.000474 -0.000977
                CHANNELS 3 Xrotation Yrotation Zrotation
                End Site
                {
                  OFFSET 0.0 0.006864 0.0
                }
              }
            }
          }
        }
        JOINT RClavicle
        {
          OFFSET -0.014189 0.150698 0.046467
          CHANNELS 3 Xrotation Yrotation Zrotation
          JOINT RShoulder
          {
            OFFSET -0.082908 0.021619 -0.034982
            CHANNELS 3 Xrotation Yrotation Zrotation
            JOINT RForearm
            {
              OFFSET -0.195645 -0.000695 -0.001695
              CHANNELS 3 Xrotation Yrotation Zrotation
              JOINT RHand
              {
                OFFSET -0.163209 0.000474 -0.000977
                CHANNELS 3 Xrotation Yrotation Zrotation
                End Site
                {
                  OFFSET 0.0 0.006864 0.0
                }
              }
            }
          }
        }
      }
    }
  }
  JOINT RThigh
  {
    OFFSET -0.072558 0.02774 -0.005953
    CHANNELS 3 Xrotation Yrotation Zrotation
    JOINT RShin
    {
      OFFSET -0.005253 -0.285537 0.0
      CHANNELS 3 Xrotation Yrotation Zrotation
      JOINT RFoot
      {
        OFFSET 0.0 -0.28038 0.0
        CHANNELS 3 Xrotation Yrotation Zrotation
        JOINT RToe
        {
          OFFSET 0.0 -0.030816 0.064441
          CHANNELS 3 Xrotation Yrotation Zrotation
          End Site
          {
            OFFSET 0.0 0.0 0.043231
          }
        }
      }
    }
  }
  JOINT LThigh
  {
    OFFSET 0.072557 0.027741 -0.005953
    CHANNELS 3 Xrotation Yrotation Zrotation
    JOINT LShin
    {
      OFFSET 0.005253 -0.285539 0.0
      CHANNELS 3 Xrotation Yrotation Zrotation
      JOINT LFoot
      {
        OFFSET 0.0 -0.28038 0.0
        CHANNELS 3 Xrotation Yrotation Zrotation
        JOINT LToe
        {
          OFFSET 0.0 -0.030816 0.064441
          CHANNELS 3 Xrotation Yrotation Zrotation
          End Site
          {
            OFFSET 0.0 0.0 0.043231
          }
        }
      }
    }
  }
}
MOTION
Frames: 13
Frame Time: 0.03333333333333333
0.009408 0.587529 0.009791 8.374533 11.194604 -0.804741 -7.633414 2.622824 -0.963696 -0.4835 0.99545 -5.222026 -8.128201 -0.335969 4.196426 -5.691217 -4.508024 -1.075129 -2.761649 4.495944 0.080366 -0.060075 6.160024 -15.492395 24.871237 -23.844938 -52.143948 10.507845 -22.189547 -5.033439 -3.361127 -2.719525 1.724816 4.424959 -0.199294 18.996063 16.913414 30.110777 52.387653 6.312158 17.51437 4.863803 4.760797 1.134811 1.383977 -6.326896 -3.364719 -1.99372 15.168315 0.2384 1.962067 -2.468419 0.354603 4.429768 0.292612 -3.642051 -2.751511 -4.152671 6.033154 -5.254608 7.733328 4.946386 0.511052 2.352546 -0.967745 -4.564762 -4.067662 3.086241 1.199001 
-0.00758 0.584517 0.005182 10.982395 13.159974 2.114678 -11.865342 6.333576 -1.894458 0.08226 -0.662013 -10.346183 -9.581684 -4.149886 5.343701 -6.166654 -10.176422 -2.999019 -5.633969 10.378031 1.229326 -2.525326 10.403282 -14.38856 28.487806 -21.95536 -47.368389 10.824822 -22.093842 -8.578201 -7.89243 -7.087941 4.84732 7.875269 3.053846 21.599504 18.874556 29.18404 46.352909 6.668866 22.433807 9.70761 10.408034 2.712733 3.904258 -11.34149 -2.828007 -5.425853 20.72397 3.078717 2.851874 -2.477212 -2.071976 9.542632 0.738822 -9.499974 -6.470677 -8.869043 8.836364 -8.211896 9.127236 9.558601 2.233402 4.617586 -1.591915 -10.199692 -9.028846 7.63331 3.350833 
-0.006931 0.577445 0.013794 12.056165 13.178286 2.510367 -12.676343 6.309829 -2.393921 0.038497 -0.819833 -10.79214 -11.269493 -5.468152 5.489463 -6.589926 -10.684122 -3.079548 -5.482401 11.168674 1.411695 -2.103899 11.326802 -14.857648 29.738306 -22.028488 -47.100124 11.048992 -21.806555 -9.158607 -8.209182 -7.430749 5.253108 8.461223 2.478496 22.282557 19.785103 28.356247 45.714359 6.251472 23.561781 10.441558 11.010118 2.622273 4.147604 -11.734324 -4.794031 -6.083491 18.865446 2.424697 3.750325 -2.520428 -1.995214 10.634427 0.961388 -9.86137 -6.829743 -10.882209 8.223572 -8.715882 8.747706 10.082728 2.290813 5.556164 -1.323945 -10.846536 -9.224263 8.236362 3.627278 
-0.001089 0.571377 0.010829 12.354557 11.900817 2.948541 -12.526765 6.33029 -2.657707 -0.170484 -0.956539 -10.794459 -12.167272 -5.75592 5.85389 -5.991941 -10.58274 -3.145641 -5.560923 11.263192 1.493845 -2.005978 11.509402 -15.164615 30.104164 -21.807463 -47.599705 10.91081 -21.490597 -9.322439 -8.266973 -7.53661 5.37031 8.661694 2.174885 22.331556 19.790194 27.298658 46.158653 5.58849 23.996252 10.88149 11.20388 2.634642 4.107141 -12.253894 -5.409226 -6.289589 18.898939 1.558006 4.327021 -2.794251 -2.330978 10.66088 0.833273 -9.984933 -6.908478 -12.42772 7.838895 -8.982203 8.324723 9.686769 2.693578 5.551159 -1.332529 -11.055419 -9.432565 8.34905 3.587505 
-0.001974 0.568083 0.011834 12.941806 11.644969 3.489282 -12.406462 6.450373 -2.865505 -0.300657 -0.956274 -11.030389 -12.518267 -5.600083 6.33562 -5.511364 -10.568789 -3.174628 -5.728611 11.43062 1.62863 -1.984378 11.665845 -15.304808 29.964331 -21.62076 -48.160759 10.420082 -20.905306 -9.648625 -8.497947 -7.717909 5.47799 8.858459 2.109859 22.486328 18.925619 27.332043 46.812943 4.655007 22.702242 11.223995 11.487908 2.715206 4.109996 -12.993592 -5.051181 -6.35791 19.323774 1.789863 4.583263 -3.36178 -2.818195 10.51544 0.694853 -10.19908 -7.032917 -13.747249 7.946479 -9.502022 7.881833 9.576074 3.086476 5.204194 -1.27475 -11.389071 -9.743373 8.496579 3.628019 
-0.009966 0.563919 0.014428 14.403932 12.21424 4.625295 -12.611403 6.595517 -2.828835 -0.476361 -0.911239 -11.34788 -13.052772 -5.391012 6.544581 -5.360032 -10.72322 -3.027442 -5.854026 11.678596 1.748217 -2.164226 11.812769 -15.187293 30.16803 -20.890034 -48.457264 9.771647 -20.4111 -9.907184 -8.784693 -7.86865 5.602675 9.076818 2.345948 22.687588 17.891729 27.59458 47.580326 3.64119 20.683994 11.32093 11.766919 2.802687 4.23701 -14.674856 -4.229058 -6.247159 19.879839 2.825118 4.401266 -4.454288 -3.406931 10.312476 0.538951 -10.493155 -7.161665 -16.114813 8.117122 -9.862405 7.783663 9.748926 3.246584 4.750337 -1.15945 -11.697477 -9.965464 8.702216 3.779317 
-0.021253 0.560239 0.01666 16.480677 13.876055 5.744577 -13.057367 6.742287 -2.77799 -0.604206 -0.858668 -11.71985 -13.698643 -5.139726 6.767293 -5.641941 -11.015823 -2.929768 -5.981722 11.973761 1.868236 -2.408708 11.999355 -14.821553 30.748344 -20.157112 -48.241405 9.564441 -20.395184 -10.161992 -9.094503 -8.045774 5.732944 9.329721 2.517443 23.054697 16.921051 27.906227 48.329842 2.670849 18.405964 11.280939 12.068954 2.876077 4.428182 -17.025059 -3.231978 -6.115189 20.540371 4.013834 4.282076 -5.616324 -4.14887 10.054092 0.379052 -10.814143 -7.356087 -19.399752 8.217357 -10.114844 8.066256 10.022911 3.473252 4.388868 -1.251671 -12.109646 -10.166162 8.949215 3.998579 
-0.031499 0.557327 0.019845 18.557016 16.033363 6.315577 -13.579263 6.863298 -2.777764 -0.760795 -0.902042 -12.102579 -14.467791 -5.163716 6.934968 -5.919816 -11.370797 -2.895814 -6.184413 12.321392 1.982533 -2.521704 12.28599 -14.483953 31.318586 -19.26893 -47.886562 9.446096 -20.601494 -10.438844 -9.432161 -8.257259 5.883507 9.525948 2.410731 23.606909 16.073812 27.987722 49.05249 1.475584 16.554852 11.214579 12.422245 2.960409 4.647109 -19.391251 -2.832199 -6.096589 21.130047 4.680477 4.4072 -6.533006 -5.093459 9.733972 0.223026 -11.189122 -7.568041 -23.152906 8.231003 -10.330592 8.67354 10.422996 3.741305 4.287843 -1.393162 -12.578404 -10.394488 9.229721 4.257499 
-0.040606 0.554379 0.024225 20.664942 17.832596 6.509615 -14.178075 6.929392 -2.803051 -0.994774 -0.876073 -12.482832 -15.334963 -5.292865 7.217808 -6.447277 -11.678704 -2.920221 -6.378901 12.677202 2.108858 -2.543129 12.66075 -14.301323 31.975405 -18.17071 -47.517521 9.321733 -21.003862 -10.738535 -9.785812 -8.453653 6.025503 9.57862 1.964724 24.334236 15.512318 27.55899 49.527092 0.38693 15.464457 11.240538 12.766953 3.019698 4.886738 -21.787001 -2.624354 -6.105704 21.760307 5.039351 4.743164 -7.282992 -5.948314 9.441547 0.06065 -11.566584 -7.764945 -27.369797 7.960701 -10.542626 9.532809 10.888623 3.875753 4.3533 -1.541735 -13.077703 -10.579051 9.518373 4.526584 
-0.04582 0.551971 0.029748 22.567146 19.431782 5.787496 -14.830397 6.871206 -2.766909 -1.148436 -0.953364 -12.744508 -16.255848 -5.417417 7.382735 -7.022683 -11.935508 -2.908041 -6.570906 12.94056 2.223793 -2.436139 13.067405 -14.243275 32.486847 -17.0009 -47.378616 9.054011 -21.076866 -10.852286 -10.064583 -8.597663 6.130079 9.540677 1.34229 25.108913 15.000337 26.938425 49.782166 -0.449527 14.9465 11.313901 13.02386 3.070166 5.0985 -23.004494 -2.8567 -5.947021 21.749517 5.065978 5.064016 -7.640127 -6.732073 9.236485 -0.219785 -11.877516 -7.911712 -31.518599 7.704481 -10.634749 10.01134 11.450813 3.966373 4.627705 -1.748996 -13.50501 -10.727799 9.739793 4.777689 
-0.043392 0.551263 0.036802 22.63378 20.000443 4.357527 -15.146081 6.837955 -2.739303 -1.053421 -0.993889 -12.748532 -16.607521 -5.25099 7.645115 -7.228613 -12.157713 -2.711348 -6.743828 13.080912 2.27652 -2.419016 13.281871 -14.203161 32.735054 -16.287739 -47.586987 8.629563 -20.515656 -10.761903 -10.232873 -8.629839 6.217574 9.250948 0.710428 25.6528 14.371669 26.094389 50.181778 -1.354585 15.254976 11.373014 13.174723 3.084848 5.192271 -21.588701 -3.906723 -5.629522 21.235609 4.907103 5.364361 -7.419556 -7.105974 9.227695 -0.469702 -12.012419 -7.940413 -33.162292 7.228675 -10.68691 9.582168 11.873401 3.975323 5.072167 -1.844753 -13.766417 -10.789161 9.809137 4.997692 
-0.037796 0.551778 0.045758 21.86688 20.429201 2.844816 -15.333869 6.811037 -2.821591 -0.902258 -1.085859 -12.620393 -16.695116 -5.058431 8.066552 -7.250759 -12.319359 -2.656233 -6.901778 13.195511 2.308201 -2.374353 13.501541 -14.115418 32.697868 -15.690908 -47.943104 8.232788 -20.063696 -10.707895 -10.373214 -8.632005 6.289445 8.973855 0.061915 26.247595 13.810571 24.964787 50.516609 -2.291951 15.902119 11.46534 13.286234 3.080176 5.270598 -18.754002 -5.172714 -5.305755 20.056541 4.691943 5.729789 -6.762108 -7.290595 9.316987 -0.746269 -12.106315 -7.9255 -33.420425 6.718383 -10.861584 8.743246 12.074197 4.219716 5.684219 -1.905156 -13.920516 -10.842412 9.855303 5.166017 
-0.031777 0.552595 0.055356 20.934862 20.740543 1.766273 -15.496413 6.811862 -2.894751 -0.702062 -1.153438 -12.515838 -16.615904 -4.799568 8.474271 -7.290414 -12.460534 -2.736802 -6.992418 13.298312 2.327329 -2.382312 13.697582 -14.086458 32.501556 -15.104961 -48.230175 7.873044 -19.64959 -10.69467 -10.481738 -8.619586 6.35287 8.694183 -0.473056 26.842543 13.307699 23.87855 50.643799 -3.213852 16.665564 11.594887 13.397252 3.054564 5.325599 -15.727727 -6.257348 -5.055419 18.996342 4.581097 5.991935 -6.018323 -7.259852 9.386644 -0.981031 -12.138234 -7.888616 -33.490906 6.2045 -11.103243 8.004179 12.243898 4.4366 6.293982 -1.979177 -14.035796 -10.852841 9.886292 5.31026 
